<svg xmlns="http://www.w3.org/2000/svg" version="1.1"><polyline points="84.5,0.5,80.0,4.5,77.5,4.5,69.0,8.5,72.0,8.5,71.0,13.0,74.5,12.0,71.5,16.0,69.5,20.5" stroke="black" stroke-width="2" fill="none" />
<polyline points="65.5,18.5,69.0,17.5,73.0,17.5,77.5,16.5,82.0,16.5" stroke="black" stroke-width="2" fill="none" />
<polyline points="80.0,16.0,77.0,20.0" stroke="black" stroke-width="2" fill="none" />
<polyline points="78.0,17.0,79.0,16.5,85.0,13.5,83.0,18.0,82.5,20.0,85.5,16.0,86.0,12.0,81.0,13.0,77.5,13.5" stroke="black" stroke-width="2" fill="none" />
<polyline points="85.0,16.0,83.0,17.5,82.0,21.5" stroke="black" stroke-width="2" fill="none" />
<polyline points="90.0,8.5,94.0,7.5,96.5,8.5,102.5,7.0" stroke="black" stroke-width="2" fill="none" />
<polyline points="99.0,5.5,98.0,5.5,93.0,7.0,91.5,11.0,94.0,13.0,92.5,17.0" stroke="black" stroke-width="2" fill="none" />
<polyline points="101.5,11.5,106.0,9.5" stroke="black" stroke-width="2" fill="none" />
<polyline points="111.0,6.0,112.0,6.5,111.5,11.0,111.0,15.0,114.0,21.0,115.0,25.0,118.0,29.0,126.5,27.5,130.5,21.5,133.0,23.5,132.5,27.5,130.5,32.0,131.5,36.0,131.5,38.0,132.5,41.5,134.0,43.5,133.0,44.0,130.5,48.5,131.5,49.5,133.5,53.0,133.5,50.5,138.0,50.0,138.5,45.0,142.0,41.5" stroke="black" stroke-width="2" fill="none" />
<polyline points="138.5,38.0,138.5,38.0,134.5,38.5,130.0,39.0,128.0,39.5,128.5,39.5,134.5,35.5,137.0,31.5,132.0,31.5,133.5,31.5,130.5,33.5" stroke="black" stroke-width="2" fill="none" />
<polyline points="130.5,35.5,134.0,36.5" stroke="black" stroke-width="2" fill="none" />
<polyline points="132.5,33.5,136.5,32.5" stroke="black" stroke-width="2" fill="none" />
<polyline points="136.0,36.0,134.0,33.5,130.0,35.0,122.5,35.5,125.5,31.5,129.0,27.5,131.0,24.0,128.0,19.5,128.0,17.0,123.5,16.5,121.5,19.5,122.5,22.0,126.5,18.0,127.0,17.0,124.0,14.0,120.5,14.0" stroke="black" stroke-width="2" fill="none" />
<polyline points="119.0,11.5,123.0,11.0,126.5,12.5,127.5,13.5,130.0,15.0,131.5,15.0,133.0,19.5,130.0,21.0,130.0,25.5,128.5,29.5,126.5,32.5,121.0,35.0,125.5,30.0,126.5,23.0,123.5,23.5,124.0,27.5,125.5,32.5,126.5,33.0,130.5,28.0,133.5,26.0,134.5,27.0,136.5,30.5" stroke="black" stroke-width="2" fill="none" />
<polyline points="138.5,28.0,140.5,32.0,140.0,35.5,138.0,39.5,135.5,43.0,138.5,37.5,143.5,35.5" stroke="black" stroke-width="2" fill="none" />
<polyline points="143.0,36.0,143.5,40.0,143.0,44.0,141.0,48.0,139.0,51.5,141.5,52.0" stroke="black" stroke-width="2" fill="none" />
<polyline points="139.5,61.0,142.0,61.5,143.5,65.5,142.0,69.5,140.5,73.5,141.0,78.0,140.0,81.5,140.5,85.5,137.5,87.0,137.0,91.0,135.0,95.0,135.5,99.0,136.5,103.5,137.0,107.5,136.5,111.0,136.0,115.5,136.0,118.0,134.0,120.0,133.5,124.0,132.0,128.0,130.5,132.0,130.0,135.0,129.0,139.0,126.5,143.0,123.5,150.0,123.0,155.0,120.0,159.0,115.5,163.0,110.5,167.5,105.5,171.5,102.0,175.5,97.5,178.5,99.0,179.5,102.5,177.0" stroke="black" stroke-width="2" fill="none" />
<polyline points="103.5,174.0,99.0,176.0,95.0,178.5,93.5,182.0,95.5,178.5" stroke="black" stroke-width="2" fill="none" />
<polyline points="94.0,182.0,89.5,182.0,89.0,180.0,85.0,183.0,82.5,181.0,79.0,182.5,75.0,184.5" stroke="black" stroke-width="2" fill="none" />
<polyline points="80.0,188.5,84.0,187.5" stroke="black" stroke-width="2" fill="none" />
<polyline points="71.5,198.0,69.0,196.0,65.0,194.5" stroke="black" stroke-width="2" fill="none" />
<polyline points="56.0,176.5,52.0,173.5" stroke="black" stroke-width="2" fill="none" />
<polyline points="49.5,169.0,54.0,171.5,58.0,173.0" stroke="black" stroke-width="2" fill="none" />
<polyline points="59.5,167.5,63.5,170.0,67.5,168.0,71.5,166.5,75.5,167.5,72.5,167.5,75.5,168.0,78.0,170.5" stroke="black" stroke-width="2" fill="none" />
<polyline points="74.5,168.0,78.5,167.5,81.0,164.5" stroke="black" stroke-width="2" fill="none" />
<polyline points="75.0,165.5,79.0,163.0,83.0,162.5,88.0,162.5" stroke="black" stroke-width="2" fill="none" />
<polyline points="92.5,165.5,90.5,165.5,88.0,171.0,82.5,173.0" stroke="black" stroke-width="2" fill="none" />
<polyline points="89.0,156.5,85.0,155.0,81.0,155.0,80.0,152.0" stroke="black" stroke-width="2" fill="none" />
<polyline points="74.0,151.5,78.0,150.0,82.0,149.0,86.5,149.5" stroke="black" stroke-width="2" fill="none" />
<polyline points="81.0,143.5,76.0,143.0,72.0,142.5" stroke="black" stroke-width="2" fill="none" />
<polyline points="63.5,145.5,59.0,149.5,60.5,156.0,62.0,160.0,68.5,164.0,64.0,172.0,68.0,174.0,72.0,173.0,75.5,174.5,79.5,172.5,83.5,172.0,87.5,171.0,91.5,172.5,96.0,172.0,103.0,169.5,108.5,163.0,109.0,159.5,112.0,163.5,116.0,162.0,119.0,160.0,123.0,154.5" stroke="black" stroke-width="2" fill="none" />
<polyline points="125.0,150.5,121.5,158.0,117.5,162.5,113.5,165.0,110.0,168.5,111.5,170.0,114.0,167.0,112.0,163.5,116.5,157.5,120.0,157.0,124.0,153.0,126.0,148.5,128.0,144.5,129.5,140.5,127.0,142.0" stroke="black" stroke-width="2" fill="none" />
<polyline points="110.5,151.5,111.5,152.5,115.5,156.0,115.0,157.0" stroke="black" stroke-width="2" fill="none" />
<polyline points="118.5,163.5,117.0,167.5,120.0,169.0,124.0,170.0,127.5,170.5" stroke="black" stroke-width="2" fill="none" />
<polyline points="127.0,170.5,123.0,170.0,123.5,170.5,119.0,171.0" stroke="black" stroke-width="2" fill="none" />
<polyline points="119.0,172.0,122.5,172.0,126.5,171.5,132.0,174.5,136.5,175.5,141.5,175.0,145.5,175.0,149.5,175.5,153.5,175.5,158.0,175.5,162.0,174.5" stroke="black" stroke-width="2" fill="none" />
<polyline points="137.0,183.5,133.0,180.0" stroke="black" stroke-width="2" fill="none" />
<polyline points="130.0,178.0,135.0,181.5,139.0,181.5,139.5,183.5,143.5,185.0,148.0,188.5" stroke="black" stroke-width="2" fill="none" />
<polyline points="119.0,195.0,115.5,203.0,115.5,203.0,117.5,199.0,118.5,196.0,120.0,192.0,121.5,187.5,123.0,183.5,122.5,178.5,118.5,175.5" stroke="black" stroke-width="2" fill="none" />
<polyline points="117.5,174.5,121.5,174.5,126.0,176.0,130.0,177.5,134.0,177.5,137.5,176.5,137.0,180.5,142.5,186.5,144.5,187.5,149.5,190.5" stroke="black" stroke-width="2" fill="none" />
<polyline points="122.0,182.5,122.5,178.5,118.0,176.5,118.0,173.0,118.5,168.5,119.5,164.5" stroke="black" stroke-width="2" fill="none" />
<polyline points="109.0,162.0,107.0,166.0,106.5,166.0" stroke="black" stroke-width="2" fill="none" />
<polyline points="107.0,160.5,105.5,164.5,103.5,168.0,100.5,172.0,93.0,174.0,96.0,174.0,100.0,171.0" stroke="black" stroke-width="2" fill="none" />
<polyline points="105.5,146.5,104.0,144.0,105.5,141.0,100.0,138.5" stroke="black" stroke-width="2" fill="none" />
<polyline points="103.0,142.5,99.0,142.5,95.5,142.0,91.5,141.0,87.5,141.0,83.5,142.5,79.5,142.0,75.5,141.5,71.5,142.5,67.5,144.0,64.0,144.0,59.5,144.5,58.5,146.0,61.0,146.5,56.5,150.0" stroke="black" stroke-width="2" fill="none" />
<polyline points="57.5,146.5,61.5,145.0,64.5,145.0,68.5,145.0,72.0,145.0,76.0,145.5,80.0,146.0,84.0,145.5,88.5,145.0,92.5,144.5,96.5,144.0,100.5,145.0,104.5,145.5" stroke="black" stroke-width="2" fill="none" />
<polyline points="93.5,155.5,90.0,156.5,86.0,156.5,82.0,155.5,78.0,155.5,74.5,156.5,73.5,157.0,70.0,158.0,66.0,159.0,61.0,156.0,57.0,154.0" stroke="black" stroke-width="2" fill="none" />
<polyline points="56.5,162.0,53.0,162.5,48.5,160.0" stroke="black" stroke-width="2" fill="none" />
<polyline points="46.5,161.0,51.5,165.0" stroke="black" stroke-width="2" fill="none" />
<polyline points="48.0,170.0,49.5,166.5,49.5,168.5,54.5,173.0,54.0,176.0,57.5,180.0" stroke="black" stroke-width="2" fill="none" />
<polyline points="64.0,162.5,68.5,164.5" stroke="black" stroke-width="2" fill="none" />
<polyline points="62.0,165.0,61.5,161.0,57.5,164.0,52.0,165.5,48.0,162.0,44.0,157.0" stroke="black" stroke-width="2" fill="none" />
<polyline points="47.5,157.5,50.0,161.5" stroke="black" stroke-width="2" fill="none" />
<polyline points="43.5,173.0,43.5,168.5,43.5,164.0,44.0,160.0,45.5,158.5,45.5,156.0,43.5,152.0,42.0,148.0" stroke="black" stroke-width="2" fill="none" />
<polyline points="39.5,147.0,43.0,157.0,46.5,158.0,50.5,161.0,56.0,164.5,58.5,168.5,62.5,170.5,67.5,174.5" stroke="black" stroke-width="2" fill="none" />
<polyline points="39.0,185.0,41.5,185.5,43.0,189.5,42.5,191.0,44.5,195.0,45.0,199.0" stroke="black" stroke-width="2" fill="none" />
<polyline points="45.0,202.5,43.0,200.5,41.0,196.5,40.5,192.5,39.5,188.5,39.0,184.5,40.5,180.5,42.5,180.5,43.0,178.0,41.5,178.0,37.5,181.0,33.5,184.0,29.5,186.0,25.5,189.0,21.5,191.5,17.5,194.0,13.5,196.0,9.5,198.5,5.5,201.0,3.0,202.5,10.0,199.0,16.5,195.0,23.0,191.0,30.0,185.5,30.0,181.5,29.5,177.5,27.0,175.5" stroke="black" stroke-width="2" fill="none" />
<polyline points="28.0,175.0,27.5,179.0,28.5,179.0,28.0,183.0" stroke="black" stroke-width="2" fill="none" />
<polyline points="31.0,183.5,36.0,180.0,31.0,182.5,32.5,183.0,39.0,179.0,41.0,175.5,41.0,171.0,41.0,167.0,41.0,163.0,41.0,159.0,42.0,155.0,40.5,151.0,39.5,146.5,38.0,142.5,37.0,138.5,36.0,134.0,36.0,129.5,32.5,125.5,32.0,121.5,30.5,117.5,29.0,113.5,29.0,110.0,28.0,107.5,29.5,103.5,31.0,96.0,28.0,92.5,29.0,90.0,25.0,91.0" stroke="black" stroke-width="2" fill="none" />
<polyline points="35.0,89.5,35.0,93.5" stroke="black" stroke-width="2" fill="none" />
<polyline points="39.5,89.0,43.5,84.5,47.5,80.5,51.0,78.0,54.0,79.0,58.5,78.5" stroke="black" stroke-width="2" fill="none" />
<polyline points="59.0,83.0,65.0,83.5,69.0,85.0,71.5,89.0,75.0,93.0,76.0,96.5,73.0,98.0,71.5,102.0,64.5,106.0,64.0,106.5,68.0,103.5,72.0,101.0,75.0,99.5,76.5,100.0,75.5,104.0" stroke="black" stroke-width="2" fill="none" />
<polyline points="80.5,109.0,81.0,111.0,81.5,115.0" stroke="black" stroke-width="2" fill="none" />
<polyline points="79.5,115.5,79.0,113.5,80.0,110.0,78.5,113.5" stroke="black" stroke-width="2" fill="none" />
<polyline points="73.5,122.5,69.5,122.0" stroke="black" stroke-width="2" fill="none" />
<polyline points="69.5,123.0,67.0,122.0,67.0,126.0,69.0,129.5,68.5,133.5,64.0,137.5,66.0,136.0,70.5,131.5,71.5,128.0,75.5,126.5,72.5,128.0,71.0,131.5" stroke="black" stroke-width="2" fill="none" />
<polyline points="67.5,125.5,71.5,128.0,73.0,125.5,77.5,125.0,79.5,124.0,84.5,121.0,84.5,123.5,88.5,122.5,92.0,122.0,96.5,123.0" stroke="black" stroke-width="2" fill="none" />
<polyline points="97.0,125.0,93.0,126.5,89.0,125.5" stroke="black" stroke-width="2" fill="none" />
<polyline points="85.0,125.5,89.0,125.5,92.5,124.5,94.0,127.5,90.0,132.5,91.5,131.5,94.0,128.5" stroke="black" stroke-width="2" fill="none" />
<polyline points="89.0,140.0,88.5,143.0,92.5,143.0" stroke="black" stroke-width="2" fill="none" />
<polyline points="62.5,141.5,58.0,140.0,54.0,142.5,56.0,139.5" stroke="black" stroke-width="2" fill="none" />
<polyline points="41.0,146.0,38.5,142.0,38.0,137.5,36.5,136.0" stroke="black" stroke-width="2" fill="none" />
<polyline points="33.0,127.5,34.0,124.5,33.0,120.5,31.5,117.5,31.0,114.5,30.0,110.5,30.5,106.0,29.0,109.0" stroke="black" stroke-width="2" fill="none" />
<polyline points="47.0,95.0,50.5,92.0,55.0,90.5,59.0,90.5,62.5,91.0,61.0,90.0,70.5,93.5,70.5,98.5" stroke="black" stroke-width="2" fill="none" />
<polyline points="64.5,98.5,64.0,96.0,60.0,95.5" stroke="black" stroke-width="2" fill="none" />
<polyline points="57.5,102.0,53.5,100.5" stroke="black" stroke-width="2" fill="none" />
<polyline points="52.0,99.0,55.0,94.0,51.0,100.5,52.0,102.5,56.5,103.0,59.5,102.0,62.0,104.5,65.5,103.5,66.0,100.5,70.0,99.5" stroke="black" stroke-width="2" fill="none" />
<polyline points="67.0,85.5,63.0,83.0" stroke="black" stroke-width="2" fill="none" />
<polyline points="63.0,82.0,68.0,86.5,71.0,90.5" stroke="black" stroke-width="2" fill="none" />
<polyline points="86.0,89.0,90.0,93.0,94.0,90.0,95.5,85.5,94.5,89.0,90.5,93.0,90.0,97.5,89.0,101.5,90.5,106.0" stroke="black" stroke-width="2" fill="none" />
<polyline points="96.0,97.5,100.0,93.5,104.5,91.0,106.0,92.0,110.5,92.5,114.5,94.0,118.5,95.5" stroke="black" stroke-width="2" fill="none" />
<polyline points="119.0,98.0,116.0,94.5,112.0,92.0,108.0,92.0" stroke="black" stroke-width="2" fill="none" />
<polyline points="105.5,94.5,109.5,93.5,113.5,94.5,117.5,97.5,121.5,99.0" stroke="black" stroke-width="2" fill="none" />
<polyline points="124.0,98.5,118.0,94.5,114.0,92.0,109.5,90.5,105.5,90.5,101.0,91.5,97.5,94.5,94.0,97.0,96.5,95.5,96.5,97.0" stroke="black" stroke-width="2" fill="none" />
<polyline points="94.5,95.0,98.5,93.5,95.0,95.0,96.5,100.0,98.5,101.5,100.0,99.5,104.5,101.0,108.5,101.0,109.5,98.0,114.5,100.5,119.0,101.0" stroke="black" stroke-width="2" fill="none" />
<polyline points="115.5,104.0,111.5,103.5,109.5,105.0,106.5,101.0,110.0,97.0" stroke="black" stroke-width="2" fill="none" />
<polyline points="111.5,95.0,105.0,95.5,102.5,98.0,105.0,101.0,106.5,103.5,110.5,102.0,114.5,100.5" stroke="black" stroke-width="2" fill="none" />
<polyline points="111.0,101.0,112.0,100.0,112.5,96.0" stroke="black" stroke-width="2" fill="none" />
<polyline points="111.5,94.0,115.0,98.0" stroke="black" stroke-width="2" fill="none" />
<polyline points="115.0,92.5,121.0,96.5,123.5,100.0" stroke="black" stroke-width="2" fill="none" />
<polyline points="128.0,90.0,124.0,86.5,120.0,85.0,116.5,83.5,113.5,79.5,112.5,81.5,112.0,83.0,108.0,83.0,104.0,84.5,100.0,83.5,96.0,87.0" stroke="black" stroke-width="2" fill="none" />
<polyline points="95.5,92.5,99.5,91.0,103.5,90.5,107.5,89.5,111.5,88.5,115.5,88.0,119.5,87.0,124.0,87.0" stroke="black" stroke-width="2" fill="none" />
<polyline points="127.0,88.5,126.0,92.5" stroke="black" stroke-width="2" fill="none" />
<polyline points="119.0,81.0,115.0,79.0" stroke="black" stroke-width="2" fill="none" />
<polyline points="114.5,77.0,115.0,81.0,117.5,80.0,119.0,83.5,118.0,87.5,120.0,89.5,125.0,91.0" stroke="black" stroke-width="2" fill="none" />
<polyline points="131.5,79.5,131.5,83.5,131.5,87.5,131.5,91.5,131.0,95.5,131.0,99.5,131.5,103.5,132.0,107.5,132.0,111.5,132.0,115.5,130.0,119.5" stroke="black" stroke-width="2" fill="none" />
<polyline points="131.0,120.0,130.5,124.0,129.5,128.0,128.5,131.0" stroke="black" stroke-width="2" fill="none" />
<polyline points="134.5,112.0,134.0,110.5,134.5,106.5" stroke="black" stroke-width="2" fill="none" />
<polyline points="139.5,78.5,143.0,75.5" stroke="black" stroke-width="2" fill="none" />
<polyline points="136.5,67.5,136.0,64.0" stroke="black" stroke-width="2" fill="none" />
<polyline points="135.0,63.5,136.0,67.0,139.0,70.5" stroke="black" stroke-width="2" fill="none" />
<polyline points="142.5,44.0,137.5,47.0,133.5,45.0,129.5,45.0" stroke="black" stroke-width="2" fill="none" />
<polyline points="128.5,44.5,132.5,42.5,136.5,43.0" stroke="black" stroke-width="2" fill="none" />
<polyline points="123.0,54.0,119.0,50.0,115.0,46.5,111.0,44.5,106.5,42.0,102.5,40.5" stroke="black" stroke-width="2" fill="none" />
<polyline points="106.5,43.0,105.0,47.0" stroke="black" stroke-width="2" fill="none" />
<polyline points="109.0,47.0,107.5,43.0" stroke="black" stroke-width="2" fill="none" />
<polyline points="117.0,48.0,118.5,52.0,120.5,55.5" stroke="black" stroke-width="2" fill="none" />
<polyline points="119.5,52.0,123.5,56.0,126.0,60.0,128.0,64.0,130.0,67.5,131.0,71.5,132.0,75.5,131.0,79.5,129.5,83.0,129.5,87.5,129.5,91.5,129.5,95.5,129.5,99.5" stroke="black" stroke-width="2" fill="none" />
<polyline points="109.0,78.0,105.0,79.5" stroke="black" stroke-width="2" fill="none" />
<polyline points="95.5,42.0,90.5,40.5,85.0,38.0,81.0,37.0,79.0,36.5,75.0,37.0,73.5,40.5,70.0,39.5,66.0,40.5,62.5,41.0,58.0,45.0,56.0,46.0,54.5,43.0,58.5,38.0,55.0,38.0" stroke="black" stroke-width="2" fill="none" />
<polyline points="54.5,39.5,58.5,38.5" stroke="black" stroke-width="2" fill="none" />
<polyline points="59.0,44.5,64.5,40.0" stroke="black" stroke-width="2" fill="none" />
<polyline points="68.5,24.0,70.5,20.0,64.0,21.0" stroke="black" stroke-width="2" fill="none" />
<polyline points="67.0,14.0,71.0,13.0,72.0,9.5,75.0,10.5,78.5,8.5,82.5,4.5,86.5,2.5" stroke="black" stroke-width="2" fill="none" />
<polyline points="87.5,1.5,86.5,5.5,89.0,7.0,88.0,11.0,90.5,11.5,90.5,12.5,92.0,14.0,96.0,12.5,98.0,6.5,99.0,7.0,103.0,2.5,107.0,1.0,111.0,1.5" stroke="black" stroke-width="2" fill="none" />
<polyline points="113.0,2.0,114.0,6.0,117.0,8.0,115.0,12.0,115.5,15.0,114.5,14.5,117.5,13.0,121.0,11.0,125.5,11.0,129.5,12.5,133.0,16.5,134.5,21.0,137.0,23.0,140.0,28.0" stroke="black" stroke-width="2" fill="none" />
<polyline points="137.0,22.5,133.5,23.5,137.0,27.0,138.0,30.5,138.5,34.5,142.0,39.0,140.5,42.5,136.0,42.5,137.0,44.0,138.5,46.5,136.5,49.5,137.0,53.0,139.5,54.0,139.0,57.5,138.5,61.5,140.5,64.5,139.5,69.5,140.5,72.5" stroke="black" stroke-width="2" fill="none" />
<polyline points="128.5,22.5,124.5,23.5" stroke="black" stroke-width="2" fill="none" />
<polyline points="128.5,21.5,124.5,19.0,120.5,19.5" stroke="black" stroke-width="2" fill="none" />
<polyline points="119.0,17.5,123.0,15.0,124.0,13.0,128.5,16.0" stroke="black" stroke-width="2" fill="none" />
<polyline points="118.0,16.0,119.5,12.5,117.0,17.0,117.0,21.0,121.0,23.5" stroke="black" stroke-width="2" fill="none" />
<polyline points="121.0,26.0,117.0,23.0" stroke="black" stroke-width="2" fill="none" />
<polyline points="118.5,23.5,118.0,19.5,115.0,19.0" stroke="black" stroke-width="2" fill="none" />
<polyline points="117.5,14.0,117.5,12.5,119.5,15.5,120.5,19.5,122.5,21.0,125.0,23.5,124.5,27.0,123.0,31.5,124.5,35.5,126.5,40.5,126.0,43.5,128.5,45.5,130.0,48.5,134.0,52.0,132.0,52.5,135.0,54.5,137.5,53.5,141.0,56.0,142.5,61.5" stroke="black" stroke-width="2" fill="none" />
<polyline points="118.5,28.0,115.0,26.5,114.0,24.0,108.5,23.5,106.0,27.5,109.5,21.0,105.5,21.5" stroke="black" stroke-width="2" fill="none" />
<polyline points="107.5,25.0,106.0,29.0" stroke="black" stroke-width="2" fill="none" />
<polyline points="92.0,41.0,95.5,41.5,103.0,42.0,101.5,46.0,104.5,48.5" stroke="black" stroke-width="2" fill="none" />
<polyline points="87.0,40.0,84.5,44.0,77.0,44.0,77.0,46.0,81.0,46.0,83.5,40.0,84.0,43.5,88.5,40.5,90.0,39.5,94.0,39.5,95.5,41.5,99.5,45.0,100.5,42.5,102.0,48.5,106.0,48.0,109.0,47.5,114.5,50.5,117.0,54.5,124.0,58.5,128.0,66.0" stroke="black" stroke-width="2" fill="none" />
<polyline points="69.0,87.5,69.5,83.5,65.5,82.0,61.5,81.0,57.0,81.5,53.0,82.0,49.5,82.0,45.5,84.5" stroke="black" stroke-width="2" fill="none" />
<polyline points="49.5,84.0,49.5,86.0" stroke="black" stroke-width="2" fill="none" />
<polyline points="53.5,89.0,47.0,93.5,43.5,99.5,47.5,98.5,52.0,98.5,53.0,94.5,57.0,93.5,60.5,94.0,60.5,96.5,64.0,94.0,68.0,96.5,72.5,97.0" stroke="black" stroke-width="2" fill="none" />
<polyline points="66.0,102.5,66.0,97.5,64.0,98.0,60.5,100.5,56.5,100.0,58.0,99.0,56.5,94.5,52.5,96.0" stroke="black" stroke-width="2" fill="none" />
<polyline points="52.0,92.0,50.5,94.0,45.5,95.0,49.5,91.5,54.0,89.5,58.0,89.0,62.0,89.5,66.5,91.0,70.5,93.5" stroke="black" stroke-width="2" fill="none" />
<polyline points="74.0,90.5,71.0,91.5,67.5,90.0,64.0,88.5,60.5,87.5,56.0,87.0,52.0,86.0,48.0,86.5,43.5,88.5,43.5,89.0,39.0,88.0,41.0,84.0,46.0,82.0,50.5,81.5,54.0,77.0" stroke="black" stroke-width="2" fill="none" />
<polyline points="33.5,65.5,37.5,60.5,41.5,54.0,46.0,48.5,50.0,46.0,52.5,43.5,56.0,41.0,60.0,40.0,65.5,44.0,69.5,42.5,74.5,43.5,78.5,41.5,81.0,43.5" stroke="black" stroke-width="2" fill="none" />
<polyline points="72.0,23.0,72.0,24.0,69.5,21.0,62.5,24.0,58.5,24.5,58.5,26.0,63.5,23.5,59.0,18.5,61.5,13.5,64.5,10.0,66.5,6.0,70.0,2.0,64.5,4.0,60.5,9.0" stroke="black" stroke-width="2" fill="none" />
<polyline points="60.0,8.5,62.5,8.0,57.5,9.0,54.5,11.5,58.0,14.0,58.0,15.5,58.0,19.0,55.5,21.0,57.0,22.0,55.0,22.0,57.0,20.0,58.0,21.5" stroke="black" stroke-width="2" fill="none" />
<polyline points="55.0,26.5,53.0,22.5,53.5,20.0,54.0,15.5,55.0,14.5,53.0,13.0,48.5,15.5" stroke="black" stroke-width="2" fill="none" />
<polyline points="54.0,14.0,49.5,18.0,51.5,19.0,51.5,23.0,50.0,27.0,49.5,30.0" stroke="black" stroke-width="2" fill="none" />
<polyline points="47.5,26.5,51.5,27.0,55.5,29.5" stroke="black" stroke-width="2" fill="none" />
<polyline points="48.5,32.5,47.0,28.0,45.5,23.5,43.5,23.5,43.0,26.0" stroke="black" stroke-width="2" fill="none" />
<polyline points="40.5,22.0,45.0,24.0,48.0,29.0,52.0,30.0" stroke="black" stroke-width="2" fill="none" />
<polyline points="46.5,35.5,46.0,34.0,41.5,33.5,41.5,32.0,42.0,28.0,41.0,24.0,39.0,17.0,38.5,14.5,36.5,23.5" stroke="black" stroke-width="2" fill="none" />
<polyline points="34.5,23.5,35.5,21.5,36.5,24.0,36.0,26.0,36.0,30.0,38.0,32.5,38.0,34.0,40.0,35.5" stroke="black" stroke-width="2" fill="none" />
<polyline points="37.5,42.0,33.5,41.0" stroke="black" stroke-width="2" fill="none" />
<polyline points="33.0,36.0,37.0,37.5,39.5,35.5,39.5,37.5" stroke="black" stroke-width="2" fill="none" />
<polyline points="35.5,47.0,37.0,43.5,35.5,46.5,33.0,46.0,33.0,45.0,31.0,44.0,32.0,39.0,32.5,37.5,31.5,33.5,31.0,29.5,35.0,26.5,33.5,22.5,35.5,21.0,36.0,18.0,35.0,16.0,34.5,14.0,33.0,16.0,29.0,18.0" stroke="black" stroke-width="2" fill="none" />
<polyline points="29.5,23.0,31.0,25.5,29.0,29.5,30.0,33.5,29.0,38.5,27.0,38.5,29.0,36.0,33.0,37.0,33.0,40.0,37.0,40.0,41.5,37.0" stroke="black" stroke-width="2" fill="none" />
<polyline points="48.5,35.0,44.5,33.5,41.5,28.5,38.0,30.0,34.5,28.0,32.0,25.0,29.5,29.5,28.0,24.5,29.5,21.0,31.0,20.0,27.0,23.5" stroke="black" stroke-width="2" fill="none" />
<polyline points="24.0,37.0,24.0,40.5,26.5,44.5,30.5,48.0,28.5,51.5,29.0,48.0,32.5,50.5" stroke="black" stroke-width="2" fill="none" />
<polyline points="27.5,42.5,27.5,40.0" stroke="black" stroke-width="2" fill="none" />
<polyline points="25.5,38.5,28.0,42.5,30.0,42.0,33.0,43.0,37.0,44.0" stroke="black" stroke-width="2" fill="none" />
<polyline points="31.0,54.5,27.0,57.0,26.0,59.0" stroke="black" stroke-width="2" fill="none" />
<polyline points="23.0,68.0,23.5,71.5" stroke="black" stroke-width="2" fill="none" />
<polyline points="31.0,47.0,27.0,45.0,23.0,39.0" stroke="black" stroke-width="2" fill="none" />
<polyline points="23.0,37.5,27.0,34.5,30.0,33.0,31.5,31.0,36.0,30.0,35.5,35.0" stroke="black" stroke-width="2" fill="none" />
<polyline points="26.5,37.5,26.5,41.5,29.5,45.0" stroke="black" stroke-width="2" fill="none" />
<polyline points="49.0,48.5,47.0,48.5,43.0,52.5,40.0,56.5,37.5,60.0,34.0,64.0,32.5,68.0,33.5,72.0,33.0,76.0,33.5,80.0,33.5,84.0,34.0,88.0,34.0,91.5,33.5,95.5,32.5,99.5,32.5,101.5,32.5,106.0,32.5,109.5,32.0,113.5,33.5,116.5,34.5,120.0,35.0,124.5" stroke="black" stroke-width="2" fill="none" />
<polyline points="66.5,125.0,67.0,127.0" stroke="black" stroke-width="2" fill="none" />
<polyline points="33.5,174.5,29.5,174.5" stroke="black" stroke-width="2" fill="none" />
<polyline points="30.5,175.0,30.5,179.0" stroke="black" stroke-width="2" fill="none" />
<polyline points="39.0,173.5,35.5,173.0,31.5,172.5,28.0,172.5,24.5,172.5,20.5,173.0,16.5,173.0,12.5,173.0,8.5,173.5,4.5,173.5,4.5,174.5" stroke="black" stroke-width="2" fill="none" />
<polyline points="22.5,187.5,20.0,191.0,12.0,195.0,5.5,198.5,11.0,195.5,14.5,193.0,19.0,190.5,21.5,187.5,26.0,186.0" stroke="black" stroke-width="2" fill="none" />
<polyline points="39.0,10.0,43.0,10.5,43.0,13.0,46.5,16.0,49.5,18.5,53.0,13.5,55.5,8.0,59.0,8.0,63.0,5.5" stroke="black" stroke-width="2" fill="none" />
<polyline points="64.0,7.0,60.5,8.5,58.0,12.5,55.5,13.5,56.5,15.5,61.5,14.5,63.5,8.0,67.5,5.0,71.5,2.5,79.0,5.0,83.0,5.0" stroke="black" stroke-width="2" fill="none" />
<polyline points="83.0,4.5,82.0,8.5,79.5,9.0,77.0,13.5,74.0,11.0,76.0,11.0,80.0,9.5,84.0,10.0,85.5,7.0,89.0,7.5,89.5,3.5,90.0,2.5,94.0,3.5,99.0,3.0" stroke="black" stroke-width="2" fill="none" />
<polyline points="106.0,2.0,103.0,6.0,98.0,10.5,99.5,12.0,99.5,15.5,101.0,15.5,103.5,7.5,107.5,7.5,108.0,12.5,109.5,11.5,113.5,8.5,115.0,9.0" stroke="black" stroke-width="2" fill="none" />
<polyline points="110.5,4.0,112.0,4.0,110.0,5.5,111.0,7.5,108.5,11.5,104.0,12.5,103.5,14.5,106.0,10.5,105.5,12.5,107.0,13.0,107.0,15.5,108.5,17.5,111.5,18.0,113.0,19.5,112.5,23.5,113.0,27.0,116.0,28.5,112.0,31.5,112.5,31.5,117.0,29.5,112.0,33.5,116.5,32.0" stroke="black" stroke-width="2" fill="none" />
<polyline points="95.0,17.0,91.0,14.0,84.0,13.0,83.5,11.5,80.5,17.0,77.0,18.0,69.5,21.0,68.5,18.0,65.0,20.0,63.5,23.0,65.5,22.0,63.0,20.5,63.5,17.0,62.0,15.5,65.0,13.0,67.0,9.5,68.0,5.5,71.5,4.5,70.0,4.5" stroke="black" stroke-width="2" fill="none" />
<polyline points="68.5,5.0,63.5,11.0,58.5,11.0,55.0,11.5" stroke="black" stroke-width="2" fill="none" />
<polyline points="53.5,6.0,49.5,10.5,45.5,10.5" stroke="black" stroke-width="2" fill="none" />
<polyline points="41.0,10.0,42.0,12.0,44.0,16.5,42.5,20.5,40.0,21.5,40.0,25.5,39.5,29.5,37.5,30.0,35.0,34.5,36.0,38.5,38.0,39.5,34.5,46.5,34.0,50.0,31.0,53.5,26.0,57.5,26.0,61.5,25.5,65.5,23.0,69.5,22.0,73.0,22.5,77.0,23.5,81.0,24.0,85.0,24.0,89.0,24.5,93.0,26.0,97.0,25.5,101.0,25.5,105.0,26.5,109.0,27.0,113.0,28.0,116.5,29.0,121.0,32.5,125.0" stroke="black" stroke-width="2" fill="none" />
<polyline points="48.5,32.5,53.0,30.0,53.5,25.0,50.0,24.5,46.5,21.0,48.0,19.0,46.0,15.5,46.5,14.0,50.0,13.0,53.0,9.0,54.0,5.0" stroke="black" stroke-width="2" fill="none" />
<polyline points="99.0,20.0,98.5,22.5,97.0,21.0,99.5,19.5,97.5,14.5,96.0,12.5,97.0,8.5,100.0,8.0,102.5,4.0,104.5,2.5,107.5,2.5" stroke="black" stroke-width="2" fill="none" />
</svg>